<svg xmlns="http://www.w3.org/2000/svg" viewBox="0 0 320 44">
  <rect x="0" y="2" width="40" height="40" rx="7" fill="#3350A0"/>
  <g transform="translate(3,35.4) scale(0.00598,-0.00598)" fill="white" stroke="none">
<path d="M3830 3871 c-6 -12 -90 -199 -186 -414 -195 -436 -192 -431 -240
-459 -66 -39 -47 -45 134 -43 92 1 169 3 171 4 13 4 -25 30 -53 35 -85 16
-103 64 -66 171 35 103 39 105 210 105 169 0 164 3 206 -99 37 -93 31 -137
-24 -174 -23 -16 -40 -32 -38 -36 9 -14 391 -6 391 8 0 8 -18 19 -40 25 -51
15 -45 3 -255 481 -183 415 -191 431 -210 396z m39 -367 c33 -74 61 -142 61
-150 0 -11 -24 -14 -130 -14 -90 0 -130 3 -130 11 0 10 21 60 99 242 11 26 24
47 29 47 5 0 37 -61 71 -136z M1742 3865 c-254 -57 -400 -282 -362 -555 34
-241 226 -388 480 -365 276 25 435 207 434 495 -1 300 -252 494 -552 425z
m210 -78 c206 -121 258 -550 86 -714 -105 -101 -281 -100 -381 3 -165 170
-167 592 -2 700 80 53 218 58 297 11z M2746 3869 c-245 -41 -419 -340 -351
-602 82 -314 376 -410 737 -240 l98 46 0 102 c0 111 8 132 60 158 14 7 25 19
25 26 0 21 -369 25 -387 4 -15 -19 5 -33 49 -33 48 0 81 -35 93 -98 27 -146
-44 -223 -208 -225 -200 -2 -322 161 -322 426 0 247 109 386 302 387 168 0
274 -74 333 -233 13 -33 23 -47 34 -45 14 3 16 24 19 137 3 148 -3 168 -42
132 l-24 -22 -71 30 c-124 53 -235 69 -345 50z M300 3860 c-44 -10 -27 -27 50
-51 70 -22 70 -21 70 -387 0 -365 -1 -374 -70 -417 -71 -45 -54 -50 174 -50
114 0 210 3 212 7 7 10 -36 35 -73 43 -18 3 -44 20 -58 37 -25 30 -25 31 -23
192 l3 161 225 0 225 0 3 -161 c3 -182 -3 -206 -53 -235 -68 -40 -49 -45 152
-44 208 1 231 9 141 48 -80 36 -78 26 -78 431 0 388 -4 366 63 394 26 11 37
31 17 33 -110 8 -375 0 -375 -12 0 -7 20 -19 46 -26 78 -22 84 -35 87 -188 5
-179 24 -166 -241 -163 l-212 3 -3 149 c-3 166 0 174 67 202 64 27 24 36 -158
38 -93 0 -179 -1 -191 -4z M4368 3852 c-14 -17 -3 -28 46 -44 85 -28 96 -79
96 -435 0 -294 -5 -320 -61 -351 -40 -21 -71 -50 -65 -60 8 -14 339 -9 343 5
3 7 -8 18 -24 24 -134 53 -132 48 -133 392 0 152 4 267 9 267 5 0 157 -160
337 -355 180 -195 333 -354 339 -352 6 2 12 139 15 408 6 446 4 435 71 470 68
34 46 42 -120 41 -190 -1 -213 -14 -99 -56 88 -32 88 -32 88 -322 0 -147 -4
-254 -9 -254 -10 0 -127 124 -404 430 l-186 205 -116 0 c-83 0 -120 -4 -127
-13z M717 2674 c-106 -34 -176 -150 -164 -271 11 -108 56 -149 253 -234 167
-73 200 -96 214 -149 40 -150 -127 -259 -278 -181 -56 29 -98 78 -137 164 -37
79 -65 101 -65 50 0 -30 45 -232 54 -240 15 -16 180 -54 236 -55 182 -4 298
115 288 295 -7 140 -55 194 -245 276 -191 83 -213 100 -213 168 0 90 47 133
146 133 103 0 170 -48 223 -160 36 -76 40 -80 57 -73 13 5 15 20 9 102 -9 152
-12 164 -38 156 -54 -17 -70 -16 -117 4 -67 29 -161 35 -223 15z M1293 2668
c-7 -13 7 -28 44 -46 76 -36 78 -46 76 -295 -2 -281 -11 -434 -27 -464 -7 -14
-30 -34 -52 -47 -73 -41 -55 -49 109 -50 184 -1 214 12 112 47 -75 26 -80 48
-77 302 2 121 5 228 8 238 7 23 21 22 29 -3 12 -38 256 -575 266 -585 17 -17
37 18 174 305 132 275 150 309 159 299 2 -2 10 -112 17 -245 13 -270 11 -287
-49 -313 -20 -9 -32 -21 -30 -30 3 -14 28 -16 173 -16 94 -1 176 1 183 3 23 8
12 31 -22 42 -85 28 -90 56 -102 490 -8 303 -7 308 63 330 48 15 62 28 45 39
-18 11 -199 8 -211 -4 -5 -6 -79 -156 -165 -335 -85 -178 -160 -326 -166 -328
-6 -2 -21 20 -34 50 -121 269 -277 603 -286 612 -12 12 -229 16 -237 4z M2558
2669 c-19 -12 2 -27 57 -44 87 -25 85 -17 85 -407 0 -363 -1 -367 -57 -403
-70 -44 -49 -50 157 -49 104 0 192 3 196 6 12 13 -6 25 -46 32 -98 15 -103 40
-98 472 3 341 2 333 66 359 19 8 32 20 30 27 -5 14 -369 20 -390 7z M3179
2655 c-15 -39 -30 -208 -19 -219 14 -14 33 8 54 66 30 81 60 98 176 98 71 0
101 -4 109 -14 9 -10 11 -110 9 -366 l-3 -352 -27 -23 c-15 -13 -45 -26 -67
-30 -45 -7 -58 -19 -43 -38 8 -10 397 -17 455 -8 28 4 -1 32 -47 45 -36 11
-63 26 -80 47 l-26 31 0 342 c0 253 3 345 12 354 8 8 48 12 114 12 120 0 145
-13 173 -91 9 -25 23 -44 31 -44 16 0 16 165 0 194 -6 11 -77 14 -410 15 -394
1 -403 1 -411 -19z M4177 2672 c-9 -2 -17 -10 -17 -17 0 -14 10 -19 67 -30 72
-15 73 -17 73 -396 0 -376 1 -372 -66 -412 -78 -47 -60 -52 172 -52 171 1 209
3 209 15 0 7 -25 22 -58 33 -89 29 -97 48 -97 228 0 112 3 149 14 158 9 8 78
11 227 9 l214 -3 3 -169 c3 -186 -1 -202 -59 -231 -62 -32 -32 -40 164 -40
202 0 229 8 145 44 -87 37 -83 17 -86 417 -3 386 -3 385 54 409 72 30 38 39
-162 39 -158 1 -189 -1 -189 -13 0 -8 15 -18 35 -23 92 -22 100 -40 100 -208
0 -118 -2 -130 -19 -140 -29 -15 -414 -13 -429 2 -8 8 -12 56 -12 148 0 152 6
170 66 195 30 12 46 34 27 36 -27 3 -363 3 -376 1z M0 1350 l0 -40 2845 0
2845 0 0 40 0 40 -2845 0 -2845 0 0 -40z M2577 943 c-3 -5 -61 -134 -130 -288
-266 -596 -254 -573 -309 -601 -55 -28 -30 -34 143 -34 186 0 208 8 113 43
-92 33 -102 72 -48 195 33 77 46 82 202 82 154 0 159 -2 201 -104 45 -108 39
-145 -25 -172 -19 -8 -34 -21 -34 -29 0 -13 29 -15 196 -15 179 0 195 1 192
17 -2 10 -16 20 -35 24 -18 3 -39 12 -47 18 -7 6 -98 205 -202 441 -170 387
-202 448 -217 423z m38 -375 c31 -69 55 -134 53 -145 -5 -26 -235 -33 -245 -7
-10 26 111 305 126 288 4 -5 34 -66 66 -136z M1315 920 c-11 -17 4 -28 60 -45
33 -9 59 -23 65 -36 15 -27 14 -713 -1 -741 -6 -11 -26 -26 -45 -34 -19 -8
-34 -21 -34 -29 0 -13 39 -15 281 -15 317 0 331 3 384 80 52 76 50 188 -3 120
-72 -93 -139 -126 -276 -136 -81 -7 -85 -6 -110 19 l-26 26 0 359 c0 395 -3
376 63 401 15 6 27 17 27 26 0 18 -374 23 -385 5z M3115 921 c-5 -9 5 -18 60
-47 15 -8 55 -111 157 -400 175 -497 166 -474 186 -474 12 0 50 71 133 247 63
136 119 248 125 250 5 2 47 -103 94 -233 90 -251 99 -270 121 -262 8 3 78 183
158 404 157 434 171 468 201 484 11 6 20 17 20 26 0 12 -21 14 -137 12 -111
-2 -138 -6 -138 -17 0 -8 17 -19 37 -25 104 -30 104 -66 -4 -384 -46 -133 -87
-241 -93 -239 -10 4 -195 551 -195 580 0 10 16 27 35 38 71 42 50 50 -127 47
-171 -3 -203 -13 -134 -42 42 -17 52 -37 101 -187 l38 -116 -79 -168 c-44 -93
-85 -170 -91 -172 -12 -4 -203 556 -203 598 0 19 8 29 36 42 67 33 39 42 -134
45 -97 1 -163 -1 -167 -7z"/>
  </g>
  <text x="52" y="20" font-family="'Georgia','Times New Roman',serif" font-size="18" font-weight="700" fill="#18181a" letter-spacing="1">Hogan Smith</text>
  <text x="52" y="35" font-family="'DM Sans',sans-serif" font-size="11" font-weight="500" fill="#8b8b97" letter-spacing="3">LAW</text>
</svg>
